<svg xmlns="http://www.w3.org/2000/svg" width="352.000000pt" height="414.000000pt" viewBox="0 0 352.000000 414.000000" preserveAspectRatio="xMidYMid meet"><g transform="translate(0.000000,414.000000) scale(0.100000,-0.100000)" fill="#000000" stroke="none"><path d="M3415 4133 c-260 -15 -470 -46 -640 -94 -294 -84 -617 -258 -761 -411 -94 -100 -101 -112 -294 -543 -94 -209 -177 -373 -224 -440 -86 -123 -316 -402 -387 -470 -41 -38 -147 -132 -237 -208 -164 -139 -236 -219 -273 -305 -31 -71 -22 -122 22 -122 10 0 66 52 125 115 59 64 139 141 178 172 102 82 268 251 365 373 82 104 176 199 197 200 6 0 19 -9 28 -19 17 -18 17 -21 0 -53 -22 -43 -298 -398 -430 -553 -110 -129 -182 -201 -398 -395 -215 -194 -317 -338 -379 -536 -52 -164 -60 -374 -20 -528 21 -80 41 -100 72 -71 29 26 41 77 51 223 9 146 28 227 75 329 53 115 86 155 335 408 435 444 694 759 785 959 47 104 61 156 95 351 16 94 41 210 55 260 65 221 216 470 401 657 164 166 286 232 659 357 299 100 394 125 568 147 l137 18 0 93 0 93 -27 -2 c-16 -1 -50 -3 -78 -5z"></path><path d="M3330 3800 c-267 -35 -464 -85 -657 -166 -367 -153 -584 -366 -630 -616 -44 -245 -53 -270 -173 -486 -49 -89 -90 -168 -90 -177 0 -8 8 -15 18 -15 19 0 110 71 142 112 32 41 93 177 150 334 73 198 116 270 235 389 250 251 595 395 1093 456 l102 13 0 88 0 88 -27 -1 c-16 -1 -89 -9 -163 -19z"></path><path d="M3232 3424 c-121 -19 -304 -72 -419 -122 -237 -103 -450 -296 -552 -500 -39 -78 -40 -129 -2 -124 39 6 67 29 135 112 80 96 154 146 350 234 287 130 455 188 641 221 50 9 100 19 113 21 21 4 22 9 22 89 l0 85 -97 -1 c-54 -1 -140 -7 -191 -15z"></path><path d="M1548 3218 c-9 -7 -47 -67 -84 -133 -223 -402 -396 -607 -855 -1007 -129 -113 -265 -238 -300 -277 -132 -145 -214 -325 -243 -536 -22 -164 -58 -556 -52 -571 9 -23 25 -16 56 27 35 49 97 206 215 544 159 456 167 469 571 870 312 311 380 388 490 552 117 174 249 477 228 524 -8 17 -12 18 -26 7z"></path><path d="M3315 2965 c-288 -40 -472 -93 -679 -196 -201 -101 -375 -234 -536 -411 -52 -57 -166 -177 -254 -268 l-161 -165 60 -3 c33 -2 76 1 96 7 50 15 397 247 549 367 381 301 648 422 985 449 44 3 95 8 113 11 l32 5 0 114 c0 103 -2 115 -17 114 -10 0 -94 -12 -188 -24z"></path><path d="M3315 2569 c-398 -31 -484 -73 -795 -393 -345 -356 -353 -364 -420 -395 -101 -48 -181 -57 -328 -36 -211 29 -324 7 -397 -78 -42 -49 -55 -91 -42 -130 13 -40 29 -43 84 -16 71 34 211 45 371 29 169 -17 222 -11 366 45 65 25 121 44 123 42 5 -5 -82 -256 -113 -325 -53 -121 -138 -198 -249 -226 -33 -8 -127 -22 -210 -31 -82 -8 -168 -20 -190 -26 -56 -15 -127 -91 -145 -153 -26 -93 11 -130 120 -120 410 36 616 122 742 307 58 85 98 185 173 433 36 118 79 249 96 292 92 235 269 431 474 528 129 61 217 78 373 71 70 -3 137 -8 150 -12 22 -7 22 -7 22 99 l0 106 -47 -1 c-27 -1 -97 -6 -158 -10z"></path><path d="M3120 2215 c-36 -8 -95 -26 -133 -41 -78 -30 -207 -111 -231 -145 -16 -23 -16 -24 4 -27 11 -2 80 6 152 18 143 23 191 22 456 -6 74 -8 138 -14 143 -14 6 0 8 43 7 102 l-3 102 -75 12 c-100 16 -240 16 -320 -1z"></path><path d="M3144 1905 c-168 -30 -296 -87 -377 -168 -57 -56 -134 -209 -166 -327 -44 -164 -48 -284 -14 -474 29 -162 0 -264 -97 -348 -70 -60 -64 -94 18 -105 49 -7 104 18 133 59 12 16 38 95 59 176 68 261 118 377 208 473 109 118 214 152 456 147 l156 -3 0 73 c0 70 -1 72 -22 67 -13 -2 -119 -14 -236 -25 -183 -18 -225 -19 -293 -9 l-79 12 38 71 c45 84 95 126 227 191 104 52 179 73 288 82 l78 6 -3 46 -3 46 -65 11 c-86 16 -219 15 -306 -1z"></path><path d="M3350 1694 c-113 -30 -214 -94 -195 -124 10 -16 82 -12 206 11 63 11 124 18 137 16 21 -4 22 -1 22 54 l0 59 -57 -1 c-32 0 -83 -7 -113 -15z"></path><path d="M1490 1384 c-256 -50 -428 -171 -637 -446 -117 -153 -217 -340 -318 -592 -44 -111 -48 -128 -54 -233 l-6 -113 56 0 56 0 6 112 c10 184 52 311 140 426 22 30 89 90 154 138 128 97 171 143 237 254 85 143 219 242 386 286 41 10 129 19 240 23 97 4 184 13 196 19 12 6 29 23 38 37 14 21 15 29 5 41 -33 40 -68 47 -274 50 -110 1 -211 0 -225 -2z"></path><path d="M3450 1243 c-14 -2 -65 -11 -115 -19 -213 -35 -306 -122 -407 -381 -64 -165 -115 -262 -183 -348 -77 -97 -95 -126 -95 -152 0 -31 32 -30 114 3 115 46 149 87 312 384 94 171 188 267 325 334 52 25 100 46 107 46 8 0 12 22 12 70 0 77 2 75 -70 63z"></path><path d="M3461 930 c-144 -79 -231 -174 -337 -366 -96 -174 -151 -243 -235 -299 -100 -67 -74 -86 57 -41 161 54 242 117 318 247 103 177 162 266 209 315 48 52 48 52 45 113 l-3 60 -54 -29z"></path><path d="M2220 674 c-185 -86 -362 -130 -490 -121 -45 3 -113 18 -167 36 -178 59 -310 64 -462 16 -42 -13 -103 -40 -136 -60 -153 -92 -191 -176 -197 -433 l-3 -112 73 0 72 0 0 49 c0 79 35 176 83 228 49 54 93 77 195 105 69 19 116 22 447 28 364 6 371 7 437 32 92 35 157 79 228 154 71 77 81 114 28 113 -18 0 -67 -16 -108 -35z"></path><path d="M3464 573 c-135 -251 -169 -305 -230 -363 -64 -59 -146 -100 -202 -100 -36 0 -100 -18 -107 -31 -4 -5 -1 -25 5 -44 l12 -35 243 0 243 0 -26 48 c-17 32 -23 56 -19 73 9 34 106 154 111 137 3 -7 9 -31 14 -53 7 -30 10 24 11 208 1 136 -1 247 -3 247 -3 0 -26 -39 -52 -87z"></path><path d="M1451 269 c-168 -22 -292 -88 -361 -191 -22 -33 -40 -64 -40 -69 0 -5 77 -9 171 -9 l170 0 37 30 c64 51 111 61 269 61 198 -1 285 20 322 80 12 20 11 25 -8 40 -12 10 -41 20 -64 23 -393 44 -421 46 -496 35z"></path><path d="M2300 256 c-30 -7 -63 -17 -73 -22 -17 -10 -17 -12 2 -36 12 -14 58 -41 108 -63 48 -20 131 -59 184 -86 l97 -50 106 3 106 3 -94 96 c-120 123 -189 161 -304 165 -42 2 -102 -3 -132 -10z"></path></g></svg>